HIERARCHY
ROOT Hips
{
  OFFSET 5.80788e-005 67.184 3.4734
  CHANNELS 6 Xposition Yposition Zposition Zrotation Xrotation Yrotation
  JOINT Chest
  {
    OFFSET 0 8.7983 -4.7612
    CHANNELS 3 Zrotation Xrotation Yrotation
    JOINT Chest2
    {
      OFFSET 0 8.0291 0.4195
      CHANNELS 3 Zrotation Xrotation Yrotation
      JOINT Chest3
      {
        OFFSET 0 9.9351 -2.2114
        CHANNELS 3 Zrotation Xrotation Yrotation
        JOINT Neck
        {
          OFFSET 0 22.3885 -0.4656
          CHANNELS 3 Zrotation Xrotation Yrotation
          JOINT Head
          {
            OFFSET -0.0001 12.643 3.4389
            CHANNELS 3 Zrotation Xrotation Yrotation
            End Site
            {
              OFFSET 0.0001 17.6655 0.5274
            }
          }
        }
        JOINT LeftCollar
        {
          OFFSET 2.2603 21.606 7.4023
          CHANNELS 3 Zrotation Xrotation Yrotation
          JOINT LeftShoulder
          {
            OFFSET 13.5163 -1.1332 -5.0146
            CHANNELS 3 Zrotation Xrotation Yrotation
            JOINT LeftElbow
            {
              OFFSET -0.0995 -28.05 -0.2431
              CHANNELS 3 Zrotation Xrotation Yrotation
              JOINT LeftWrist
              {
                OFFSET 0.0679 -23.3996 -0.1402
                CHANNELS 3 Zrotation Xrotation Yrotation
                JOINT LeftFinger1
                {
                  OFFSET 0.7932 -9.069 2.5189
                  CHANNELS 3 Zrotation Xrotation Yrotation
                  JOINT LeftFinger11
                  {
                    OFFSET -0.8272 -3.3923 0.5977
                    CHANNELS 3 Zrotation Xrotation Yrotation
                    JOINT LeftFinger12
                    {
                      OFFSET -0.5649 -2.3158 0.4082
                      CHANNELS 3 Zrotation Xrotation Yrotation
                      End Site
                      {
                        OFFSET -0.4919 -1.6479 0.2673
                      }
                    }
                  }
                }
                JOINT LeftFinger2
                {
                  OFFSET 0.9159 -9.2044 0.2193
                  CHANNELS 3 Zrotation Xrotation Yrotation
                  JOINT LeftFinger21
                  {
                    OFFSET 0.0117 -4.1944 -0.0248
                    CHANNELS 3 Zrotation Xrotation Yrotation
                    JOINT LeftFinger22
                    {
                      OFFSET 0.0071 -2.3249 -0.0142
                      CHANNELS 3 Zrotation Xrotation Yrotation
                      End Site
                      {
                        OFFSET -0.1475 -2.0882 0.0028
                      }
                    }
                  }
                }
                JOINT LeftFinger3
                {
                  OFFSET 0.6113 -8.7231 -2.0637
                  CHANNELS 3 Zrotation Xrotation Yrotation
                  JOINT LeftFinger31
                  {
                    OFFSET -0.1927 -3.8059 -0.2383
                    CHANNELS 3 Zrotation Xrotation Yrotation
                    JOINT LeftFinger32
                    {
                      OFFSET -0.1091 -2.1688 -0.1362
                      CHANNELS 3 Zrotation Xrotation Yrotation
                      End Site
                      {
                        OFFSET -0.2358 -1.9176 -0.0906
                      }
                    }
                  }
                }
                JOINT LeftFinger4
                {
                  OFFSET -0.6151 -8.0947 -3.5641
                  CHANNELS 3 Zrotation Xrotation Yrotation
                  JOINT LeftFinger41
                  {
                    OFFSET -0.4882 -2.341 -0.6462
                    CHANNELS 3 Zrotation Xrotation Yrotation
                    JOINT LeftFinger42
                    {
                      OFFSET -0.3575 -1.7167 -0.4742
                      CHANNELS 3 Zrotation Xrotation Yrotation
                      End Site
                      {
                        OFFSET -0.4187 -1.5237 -0.3496
                      }
                    }
                  }
                }
                JOINT LeftFinger0
                {
                  OFFSET -1.42 -1.8761 1.4223
                  CHANNELS 3 Zrotation Xrotation Yrotation
                  JOINT LeftFinger01
                  {
                    OFFSET -1.1471 -3.4929 2.6334
                    CHANNELS 3 Zrotation Xrotation Yrotation
                    JOINT LeftFinger02
                    {
                      OFFSET -0.823 -2.3 1.6571
                      CHANNELS 3 Zrotation Xrotation Yrotation
                      End Site
                      {
                        OFFSET -0.5822 -1.6914 1.1582
                      }
                    }
                  }
                }
              }
            }
          }
        }
        JOINT RightCollar
        {
          OFFSET -2.2603 21.606 7.4023
          CHANNELS 3 Zrotation Xrotation Yrotation
          JOINT RightShoulder
          {
            OFFSET -13.5187 -1.1334 -5.0155
            CHANNELS 3 Zrotation Xrotation Yrotation
            JOINT RightElbow
            {
              OFFSET 0.0994 -28.0499 -0.2431
              CHANNELS 3 Zrotation Xrotation Yrotation
              JOINT RightWrist
              {
                OFFSET -0.0679 -23.3996 -0.1402
                CHANNELS 3 Zrotation Xrotation Yrotation
                JOINT RightFinger1
                {
                  OFFSET -0.7932 -9.0691 2.5189
                  CHANNELS 3 Zrotation Xrotation Yrotation
                  JOINT RightFinger11
                  {
                    OFFSET 0.8272 -3.3923 0.5977
                    CHANNELS 3 Zrotation Xrotation Yrotation
                    JOINT RightFinger12
                    {
                      OFFSET 0.565 -2.3158 0.4082
                      CHANNELS 3 Zrotation Xrotation Yrotation
                      End Site
                      {
                        OFFSET 0.4919 -1.6479 0.2673
                      }
                    }
                  }
                }
                JOINT RightFinger2
                {
                  OFFSET -0.916 -9.2044 0.2193
                  CHANNELS 3 Zrotation Xrotation Yrotation
                  JOINT RightFinger21
                  {
                    OFFSET -0.0117 -4.1944 -0.0248
                    CHANNELS 3 Zrotation Xrotation Yrotation
                    JOINT RightFinger22
                    {
                      OFFSET -0.0071 -2.3249 -0.0142
                      CHANNELS 3 Zrotation Xrotation Yrotation
                      End Site
                      {
                        OFFSET 0.1475 -2.0882 0.0028
                      }
                    }
                  }
                }
                JOINT RightFinger3
                {
                  OFFSET -0.6113 -8.7231 -2.0637
                  CHANNELS 3 Zrotation Xrotation Yrotation
                  JOINT RightFinger31
                  {
                    OFFSET 0.1927 -3.8059 -0.2383
                    CHANNELS 3 Zrotation Xrotation Yrotation
                    JOINT RightFinger32
                    {
                      OFFSET 0.1091 -2.1688 -0.1362
                      CHANNELS 3 Zrotation Xrotation Yrotation
                      End Site
                      {
                        OFFSET 0.2358 -1.9176 -0.0906
                      }
                    }
                  }
                }
                JOINT RightFinger4
                {
                  OFFSET 0.6151 -8.0947 -3.564
                  CHANNELS 3 Zrotation Xrotation Yrotation
                  JOINT RightFinger41
                  {
                    OFFSET 0.4882 -2.341 -0.6462
                    CHANNELS 3 Zrotation Xrotation Yrotation
                    JOINT RightFinger42
                    {
                      OFFSET 0.3574 -1.7166 -0.4742
                      CHANNELS 3 Zrotation Xrotation Yrotation
                      End Site
                      {
                        OFFSET 0.4187 -1.5237 -0.3496
                      }
                    }
                  }
                }
                JOINT RightFinger0
                {
                  OFFSET 1.4199 -1.8761 1.4221
                  CHANNELS 3 Zrotation Xrotation Yrotation
                  JOINT RightFinger01
                  {
                    OFFSET 1.1472 -3.4929 2.6336
                    CHANNELS 3 Zrotation Xrotation Yrotation
                    JOINT RightFinger02
                    {
                      OFFSET 0.8229 -2.3 1.6571
                      CHANNELS 3 Zrotation Xrotation Yrotation
                      End Site
                      {
                        OFFSET 0.5822 -1.6914 1.1582
                      }
                    }
                  }
                }
              }
            }
          }
        }
      }
    }
  }
  JOINT RightHip
  {
    OFFSET -9.412 3.9771 -0.7758
    CHANNELS 3 Zrotation Xrotation Yrotation
    JOINT RightKnee
    {
      OFFSET -0.7531 -40.938 0
      CHANNELS 3 Zrotation Xrotation Yrotation
      JOINT RightAnkle
      {
        OFFSET 0 -40.1986 0
        CHANNELS 3 Zrotation Xrotation Yrotation
        JOINT RightToe
        {
          OFFSET 0 -4.4182 9.239
          CHANNELS 3 Zrotation Xrotation Yrotation
          End Site
          {
            OFFSET 0 0 6.1981
          }
        }
      }
    }
  }
  JOINT LeftHip
  {
    OFFSET 9.4119 3.9773 -0.7758
    CHANNELS 3 Zrotation Xrotation Yrotation
    JOINT LeftKnee
    {
      OFFSET 0.7532 -40.9383 0
      CHANNELS 3 Zrotation Xrotation Yrotation
      JOINT LeftAnkle
      {
        OFFSET 0 -40.1986 0
        CHANNELS 3 Zrotation Xrotation Yrotation
        JOINT LeftToe
        {
          OFFSET 0 -4.4182 9.239
          CHANNELS 3 Zrotation Xrotation Yrotation
          End Site
          {
            OFFSET 0 0 6.1981
          }
        }
      }
    }
  }
}
MOTION
Frames:	4
Frame Time:	0.0333333
39.8407 29.1136 38.4104 4.00061e-007 67.595 -4.31765e-007 -0.403929 8.36912 -0.04969 -0.813688 16.7384 -0.039632 -0.813691 16.7385 -0.0396318 3.43252e-006 0.614881 6.45508e-007 -4.93612 -7.78927 -0.888693 -16.6287 2.40061 -4.45194 155.949 -52.8166 42.7111 3.36505 -15.2148 10.0322 57.4594 -8.85216 5.63383 -0 0 1.98785e-016 -3.18055e-015 0 1.98785e-016 -3.18055e-015 0 5.96354e-016 -0 0 1.98785e-016 -0.0127819 0.00231557 7.77081e-005 -3.18055e-015 -2.38542e-015 1.78906e-015 -0 0 1.98785e-016 -0.0160613 0.00300029 0.000855836 -1.91195e-006 1.53405e-006 -3.26882e-006 -0 0 1.98785e-016 -0.0126156 0.00312441 0.00282664 -6.36111e-015 -7.95139e-016 -5.96354e-016 -0 0 1.98785e-016 -3.18055e-015 0 1.98785e-016 -3.18055e-015 0 5.96354e-016 15.3184 2.79668 -0.234566 -161.588 -52.8954 -50.8962 -3.2034 -15.0472 -10.3175 -57.5618 -8.13746 -6.96392 4.42755e-006 -5.1515e-006 -7.31754e-007 6.36111e-015 -1.59028e-015 -1.19271e-015 7.81028e-007 -1.02021e-005 6.64715e-006 4.42755e-006 -5.1515e-006 -7.31754e-007 0.0130078 0.00233635 -8.50197e-005 -7.34371e-007 -1.50301e-005 1.00267e-005 4.42755e-006 -5.1515e-006 -7.31754e-007 0.016305 0.00302217 -0.000855148 -1.03599e-006 -5.88285e-006 -8.33455e-006 4.42755e-006 -5.1515e-006 -7.31754e-007 0.0146023 0.00367937 -0.00326437 7.78057e-006 -5.01998e-006 1.24555e-005 4.42755e-006 -5.1515e-006 -7.31754e-007 6.36111e-015 -1.59028e-015 -1.19271e-015 7.81028e-007 -1.02021e-005 6.64715e-006 -19.7717 -70.7965 -25.0447 -168.693 76.2327 168.07 -11.0865 45.1456 2.74499 1.02439e-007 2.80501e-006 -5.92152e-007 19.6538 -70.8212 24.8243 169.097 76.2332 -168.443 11.0701 45.1329 -2.76972 -4.03382e-007 4.79261e-006 1.08482e-007 
39.8407 29.0649 38.4921 5.73106e-007 67.2951 -4.08273e-007 -0.404683 8.57365 -0.0468444 -0.816151 17.1474 -0.032183 -0.816155 17.1475 -0.0321828 4.25781e-006 2.17214 8.29449e-007 -4.86543 -6.46336 -0.763816 -16.3875 1.8864 -4.79606 155.949 -52.8166 42.7113 3.36491 -15.2148 10.0322 57.642 -8.78436 5.71733 -3.18055e-015 7.95139e-016 -1.78906e-015 -3.18055e-015 1.59028e-015 -1.39149e-015 -3.18055e-015 1.59028e-015 -1.39149e-015 -3.18055e-015 7.95139e-016 -1.78906e-015 -0.012799 0.00231106 7.53921e-005 -6.36111e-015 0 -5.96354e-016 -3.18055e-015 7.95139e-016 -1.78906e-015 -0.0160536 0.0029892 0.000848427 -5.51738e-032 1.59028e-015 1.98785e-015 -3.18055e-015 7.95139e-016 -1.78906e-015 -0.0126764 0.0031367 0.00283235 6.36111e-015 -7.95139e-016 -3.97569e-016 -3.18055e-015 7.95139e-016 -1.78906e-015 -3.18055e-015 1.59028e-015 -1.39149e-015 -3.18055e-015 1.59028e-015 -1.39149e-015 15.1182 2.26595 0.0380425 -161.588 -52.8953 -50.8963 -3.20337 -15.0472 -10.3175 -57.7355 -8.05975 -7.03391 -3.18055e-015 0 3.97569e-016 -3.18055e-015 3.18055e-015 3.97569e-016 -9.54166e-015 2.38542e-015 3.97569e-016 -3.18055e-015 0 3.97569e-016 0.0129184 0.00232111 -9.90457e-005 6.36111e-015 -1.59028e-015 3.97569e-016 -3.18055e-015 0 3.97569e-016 0.0162539 0.00304298 -0.000878153 -3.18055e-015 -1.59028e-015 -3.97569e-016 -3.18055e-015 0 3.97569e-016 0.0146983 0.00372093 -0.00330016 4.41391e-032 1.59028e-015 -1.59028e-015 -3.18055e-015 0 3.97569e-016 -3.18055e-015 3.18055e-015 3.97569e-016 -9.54166e-015 2.38542e-015 3.97569e-016 -19.3999 -70.3962 -24.6634 -168.693 76.2319 168.071 -11.0866 45.1459 2.74503 1.90557e-007 -4.77604e-006 2.11214e-007 19.2821 -70.418 24.4441 169.096 76.2342 -168.442 11.0702 45.1332 -2.76975 -2.07368e-007 3.12516e-008 1.18393e-006 
39.8407 29.0164 38.574 3.32046e-007 66.9951 -1.63273e-007 -0.405421 8.77802 -0.0439875 -0.818629 17.5561 -0.0246909 -0.818632 17.5562 -0.0246906 3.20291e-006 3.72768 3.87184e-007 -4.79786 -5.13839 -0.640976 -16.1495 1.37091 -5.13785 155.949 -52.8166 42.7112 3.36496 -15.2148 10.0323 57.8243 -8.71637 5.8006 -5.51738e-033 7.95139e-016 3.97569e-016 -2.91879e-006 -2.29448e-006 4.9849e-007 -9.54166e-015 7.95139e-016 -1.98785e-016 -5.51738e-033 7.95139e-016 3.97569e-016 -0.0128265 0.0023162 8.14344e-005 6.36111e-015 2.38542e-015 -9.93923e-016 -5.51738e-033 7.95139e-016 3.97569e-016 -0.0160819 0.00300793 0.000860263 -3.18055e-015 -7.95139e-016 -9.93923e-016 -5.51738e-033 7.95139e-016 3.97569e-016 -0.0126505 0.00313682 0.00283872 -3.18055e-015 0 2.38542e-015 -5.51738e-033 7.95139e-016 3.97569e-016 -2.91879e-006 -2.29448e-006 4.9849e-007 -9.54166e-015 7.95139e-016 -1.98785e-016 14.9205 1.73438 0.308654 -161.588 -52.8953 -50.8962 -3.20339 -15.0472 -10.3175 -57.9091 -7.98176 -7.10364 -4.17835e-006 2.98885e-006 8.9198e-007 -0 -7.95139e-016 -0 -6.74283e-006 -1.86333e-006 -2.5203e-006 -4.17835e-006 2.98885e-006 8.9198e-007 0.0128946 0.00229545 -8.1625e-005 -1.83711e-006 -3.29304e-006 -3.03188e-006 -4.17835e-006 2.98885e-006 8.9198e-007 0.0163653 0.00304028 -0.000875999 -8.11676e-006 2.06471e-006 -6.8576e-006 -4.17835e-006 2.98885e-006 8.9198e-007 0.0145567 0.00367589 -0.00326812 -5.65214e-006 -8.73104e-006 7.33933e-006 -4.17835e-006 2.98885e-006 8.9198e-007 -0 -7.95139e-016 -0 -6.74283e-006 -1.86333e-006 -2.5203e-006 -19.0386 -69.9938 -24.2928 -168.693 76.2327 168.07 -11.0866 45.1462 2.74504 -1.89823e-007 4.77394e-006 -2.1105e-007 18.9339 -70.0163 24.0866 169.097 76.2322 -168.443 11.0702 45.1337 -2.76978 -2.44783e-007 1.8849e-008 -3.47974e-007 
39.8407 28.968 38.656 -1.92134e-006 66.6952 1.47651e-006 -0.406146 8.98213 -0.0411203 -0.821124 17.9644 -0.0171563 -0.821126 17.9644 -0.0171562 4.23798e-006 5.28087 1.42987e-007 -4.73332 -3.81469 -0.520054 -15.9146 0.854071 -5.47738 155.949 -52.8166 42.7111 3.3651 -15.2149 10.0322 58.0065 -8.6481 5.88365 3.18055e-015 0 -5.96354e-016 3.18055e-015 -1.59028e-015 -0 5.51738e-033 -1.59028e-015 1.98785e-016 3.18055e-015 0 -5.96354e-016 -0.0128249 0.00232846 8.4268e-005 -3.18055e-015 0 -1.39149e-015 3.18055e-015 0 -5.96354e-016 -0.0160557 0.00299641 0.000869389 3.31043e-032 -7.95139e-016 2.38542e-015 3.18055e-015 0 -5.96354e-016 -0.012601 0.00311496 0.00282301 -3.18055e-015 7.95139e-016 -2.78299e-015 3.18055e-015 0 -5.96354e-016 3.18055e-015 -1.59028e-015 -0 5.51738e-033 -1.59028e-015 1.98785e-016 14.7255 1.20196 0.577322 -161.588 -52.8953 -50.8963 -3.20338 -15.0472 -10.3175 -58.0826 -7.90358 -7.17317 -6.36111e-015 -3.18055e-015 1.59028e-015 -3.18055e-015 -2.38542e-015 3.97569e-016 -3.18055e-015 0 -7.95139e-016 -6.36111e-015 -3.18055e-015 1.59028e-015 0.0129528 0.00231048 -7.78831e-005 0 0 -7.95139e-016 -6.36111e-015 -3.18055e-015 1.59028e-015 0.0162648 0.00301694 -0.000867281 3.18055e-015 -7.95139e-016 -2.38542e-015 -6.36111e-015 -3.18055e-015 1.59028e-015 0.0145598 0.00366276 -0.00325101 1.51214e-006 6.20632e-006 -1.0537e-005 -6.36111e-015 -3.18055e-015 1.59028e-015 -3.18055e-015 -2.38542e-015 3.97569e-016 -3.18055e-015 0 -7.95139e-016 -18.6988 -69.5927 -23.9432 -168.693 76.2307 168.072 -11.0867 45.1465 2.74504 -3.53017e-007 1.8426e-006 5.68258e-007 18.5963 -69.613 23.7401 169.097 76.2313 -168.444 11.0703 45.134 -2.7698 -1.06207e-007 1.53721e-008 5.91534e-007 
